<svg width="16" height="102" viewBox="0 0 16 102" fill="none" xmlns="http://www.w3.org/2000/svg">
<path id="Vector 320" d="M8.70711 0.292893C8.31658 -0.0976311 7.68342 -0.0976311 7.29289 0.292893L0.928932 6.65685C0.538408 7.04738 0.538408 7.68054 0.928932 8.07107C1.31946 8.46159 1.95262 8.46159 2.34315 8.07107L8 2.41421L13.6569 8.07107C14.0474 8.46159 14.6805 8.46159 15.0711 8.07107C15.4616 7.68054 15.4616 7.04738 15.0711 6.65685L8.70711 0.292893ZM7.2929 101.707C7.68342 102.098 8.31659 102.098 8.70711 101.707L15.0711 95.3431C15.4616 94.9526 15.4616 94.3195 15.0711 93.9289C14.6805 93.5384 14.0474 93.5384 13.6569 93.9289L8 99.5858L2.34315 93.9289C1.95263 93.5384 1.31946 93.5384 0.928936 93.9289C0.538412 94.3195 0.538412 94.9526 0.928936 95.3431L7.2929 101.707ZM7 1L7 101L9 101L9 1L7 1Z" fill="#887DF7"/>
</svg>
