<svg width="30" height="30" viewBox="0 0 30 30" fill="none" xmlns="http://www.w3.org/2000/svg">
<path id="Vector" d="M9.6211 10.1546C9.83969 10.0549 10.0151 9.87979 10.1152 9.66135L14.0873 0.992096C14.4443 0.212862 15.5521 0.214527 15.9067 0.994832L19.8448 9.65861C19.9449 9.87872 20.1213 10.0551 20.3414 10.1552L29.0052 14.0933C29.7855 14.4479 29.7871 15.5557 29.0079 15.9127L20.3386 19.8848C20.1202 19.9849 19.9451 20.1603 19.8454 20.3789L15.9062 29.0137C15.551 29.7923 14.4454 29.794 14.0878 29.0164L10.1146 20.3762C10.0148 20.1592 9.84076 19.9852 9.62384 19.8854L0.983593 15.9122C0.206032 15.5546 0.207699 14.449 0.986335 14.0938L9.6211 10.1546Z" fill="url(#paint0_linear_22_18308)"/>
<defs>
<linearGradient id="paint0_linear_22_18308" x1="-2.93002" y1="13.6735" x2="30.8857" y2="15.949" gradientUnits="userSpaceOnUse">
<stop stop-color="#FE91EC"/>
<stop offset="1" stop-color="#3838FF"/>
</linearGradient>
</defs>
</svg>
