<svg width="56" height="56" viewBox="0 0 56 56" fill="none" xmlns="http://www.w3.org/2000/svg">
<g id="data-line">
<path id="Vector" d="M49 16.3333C49 21.49 39.5967 25.6667 28 25.6667C16.4033 25.6667 7 21.49 7 16.3333M49 16.3333C49 11.1767 39.5967 7 28 7C16.4033 7 7 11.1767 7 16.3333M49 16.3333V28M7 16.3333V28M49 28C49 33.1567 39.5967 37.3333 28 37.3333C16.4033 37.3333 7 33.1567 7 28M49 28V39.6667C49 44.8233 39.5967 49 28 49C16.4033 49 7 44.8233 7 39.6667V28" stroke="white" stroke-width="2" stroke-linecap="round" stroke-linejoin="round"/>
</g>
</svg>
