<svg width="56" height="56" viewBox="0 0 56 56" fill="none" xmlns="http://www.w3.org/2000/svg">
<g id="Investment" clip-path="url(#clip0_2891_65485)">
<path id="Vector" d="M8.42151 30.2733C8.35657 29.3202 7.57024 28.5625 6.60248 28.5625H2.3894C1.37822 28.5625 0.554688 29.3854 0.554688 30.3972V45.8212C0.554688 46.8324 1.37822 47.6554 2.3894 47.6554H6.60248C7.34747 47.6554 7.98723 47.2061 8.27306 46.5654L22.583 53.8597C26.2532 55.7354 30.6886 56.0238 34.7365 54.3353C40.2278 52.0513 49.9718 47.8505 53.5404 45.3746C55.5113 44.0128 56.041 41.2773 54.7221 39.2764C54.72 39.2737 54.7178 39.271 54.7168 39.2684C54.7103 39.2582 54.7028 39.2474 54.6964 39.2373C53.6702 37.7055 51.547 37.031 49.6844 37.6417C48.742 37.953 46.7674 38.6019 44.6173 39.2885C48.3915 36.4021 50.7203 31.8853 50.7203 26.9245C50.7203 22.3296 48.7104 18.0312 45.2657 15.0901C45.3669 15.0065 45.4725 14.9288 45.5646 14.8343C46.2767 14.1073 46.668 13.1556 46.668 12.1557C46.668 10.0668 44.9695 8.36724 42.8807 8.36724H42.8133L44.0602 4.80719C44.2907 4.14557 44.1942 3.44643 43.7986 2.88991C43.3911 2.31837 42.7327 1.97685 42.0346 1.97685C41.432 1.97685 40.8712 2.22884 40.5602 2.70226L40.379 2.28835C39.9372 1.2332 38.9131 0.551758 37.7711 0.551758C36.8704 0.551758 36.0329 0.977994 35.5 1.7002C35.4625 1.74202 35.4281 1.78651 35.397 1.83423C35.233 2.08247 34.9928 2.11947 34.8641 2.11947C34.6486 2.11947 34.4502 2.01278 34.3333 1.83477C33.8068 1.0343 32.9211 0.556589 31.9657 0.556589C30.8237 0.556589 29.8018 1.23643 29.3761 2.25297L29.2806 2.69315C28.381 1.69162 26.6846 1.8219 25.9286 2.89153C25.5319 3.44966 25.4375 4.14934 25.6702 4.81041L26.9299 8.40934C24.8956 8.6369 23.5653 10.3204 23.5653 12.1557C23.5653 13.3444 24.1108 14.4021 24.9605 15.0988C21.5272 18.0414 19.5248 22.3361 19.5248 26.9245C19.5248 28.058 19.6566 29.1757 19.8959 30.2685C18.7226 30.269 24.1461 30.2667 8.42151 30.2733ZM6.2379 45.4593H2.75077V30.7585H6.2379V45.4593ZM50.3707 39.7278C51.3068 39.4211 52.3845 39.7316 52.8713 40.4597L52.8724 40.4607C52.8777 40.4693 52.8831 40.4774 52.8885 40.4859C53.5554 41.4971 53.2884 42.8799 52.2901 43.5688C48.8877 45.93 39.3035 50.0573 33.8926 52.3081C30.6006 53.6806 26.765 53.5305 23.5813 51.9033L8.43505 44.1827V32.4694H19.9205C24.7869 32.4694 24.3081 37.5671 30.3422 37.5671H36.5488C37.5692 37.5789 38.5187 38.2792 38.7084 39.2718C38.9087 40.53 37.9174 41.6119 36.7181 41.6119H22.3418C21.7348 41.6119 21.2437 42.1035 21.2437 42.7099C21.2437 43.3163 21.7348 43.8079 22.3418 43.8079H36.7181C38.0526 43.8079 49.0042 40.1793 50.3707 39.7278ZM29.2206 4.88652C30.0988 4.88652 30.8741 4.36002 31.1733 3.60029L31.3856 3.13705C31.5357 2.77996 31.867 2.75262 31.9657 2.75262C32.0933 2.75262 32.3324 2.79015 32.4986 3.04161C33.023 3.8394 33.9076 4.31551 34.8641 4.31551C35.7649 4.31551 36.6013 3.89409 37.1342 3.17994C37.1749 3.13543 37.2114 3.08825 37.2446 3.03732C37.4087 2.78533 37.6446 2.7478 37.7711 2.7478C37.8698 2.7478 38.2033 2.77622 38.3598 3.15099L38.5411 3.56705C38.8756 4.36056 39.6466 4.87365 40.5044 4.87365C41.0224 4.87365 41.5178 4.68278 41.8931 4.35091L40.4873 8.36722H29.242L27.8362 4.35143C28.2223 4.69404 28.7134 4.88652 29.2206 4.88652ZM26.2396 11.0233C26.8963 10.3533 27.7106 10.6269 28.4625 10.5633C32.3802 10.5633 39.514 10.5633 42.8807 10.5633C43.7578 10.5633 44.472 11.2774 44.472 12.1557C44.472 12.9216 43.9129 13.6745 42.9815 13.7572L27.3644 13.7588L27.2175 13.7529C26.3876 13.6735 25.7613 12.9867 25.7613 12.1557C25.7613 11.7273 25.9254 11.3316 26.2396 11.0233ZM27.4352 15.9548H42.8002C46.3914 18.4613 48.5242 22.5366 48.5242 26.9245C48.5242 32.152 45.5217 36.8149 40.898 39.0094C40.5991 37.0137 38.8843 35.371 36.7181 35.371H36.5488C36.5401 35.371 36.5317 35.3684 36.523 35.3684H30.3401C29.0625 35.3684 27.8682 34.9199 26.9218 34.1711C26.9054 34.1579 26.8875 34.1471 26.8712 34.1337C25.8516 33.3068 25.0544 31.4594 22.2356 30.6143C21.8935 29.4214 21.7209 28.1834 21.7209 26.9245C21.7209 22.5383 23.8505 18.4635 27.4352 15.9548Z" fill="white"/>
<path id="Vector_2" d="M35.1185 35.1598C40.2645 35.1598 44.4508 30.973 44.4508 25.8265C44.4508 20.68 40.2645 16.4932 35.1185 16.4932C29.9725 16.4932 25.7852 20.68 25.7852 25.8265C25.7852 30.973 29.9725 35.1598 35.1185 35.1598ZM35.1185 18.6892C39.0538 18.6892 42.2547 21.8911 42.2547 25.8265C42.2547 29.7618 39.0538 32.9638 35.1185 32.9638C31.1831 32.9638 27.9812 29.7618 27.9812 25.8265C27.9812 21.8911 31.1831 18.6892 35.1185 18.6892Z" fill="white"/>
<path id="Vector_3" d="M32.9986 28.1862C32.8322 28.1127 32.6197 28.1275 32.4817 28.2709C32.2656 28.4969 32.3429 28.8632 32.6576 28.9947C33.3599 29.2998 34.1191 29.4697 34.9351 29.5051V30.3351C34.9351 30.4846 35.0329 30.5694 35.1689 30.5694C35.3065 30.5694 35.4134 30.4829 35.4134 30.3351V29.5051C36.7482 29.4298 37.914 28.712 37.914 27.4307C37.914 26.0079 36.7795 25.5995 35.4134 25.2813V22.7491C35.9592 22.756 36.4921 22.852 37.009 23.0364C37.3545 23.1731 37.6052 22.9201 37.6052 22.6424C37.6052 22.43 37.5055 22.288 37.3071 22.2172C36.7259 22.0043 36.0943 21.8875 35.4134 21.866V21.0468C35.4134 20.9036 35.312 20.8018 35.1689 20.8018C35.0239 20.8018 34.9352 20.906 34.9352 21.0468V21.8767C33.2729 21.9654 32.4346 22.9298 32.4346 24.0471C32.4346 25.4126 33.6384 25.8274 34.9352 26.1643V28.6012C34.2178 28.5797 33.5733 28.4414 32.9986 28.1862ZM35.4134 26.2812C36.0887 26.46 36.9564 26.6938 36.9564 27.3669C36.9564 28.1116 36.4417 28.5197 35.4134 28.5904V26.2812ZM33.3921 23.9726C33.3921 23.1967 34.1614 22.8416 34.9351 22.7705V25.1644C34.1959 24.9772 33.3921 24.7358 33.3921 23.9726Z" fill="white"/>
</g>
<defs>
<clipPath id="clip0_2891_65485">
<rect width="56" height="56" fill="white"/>
</clipPath>
</defs>
</svg>
