<svg width="56" height="56" viewBox="0 0 56 56" fill="none" xmlns="http://www.w3.org/2000/svg">
<g id="Organization">
<path id="Vector" d="M26.25 9.98047V11.7305V22.7568V24.5068H29.75V22.7568V11.7305V9.98047H26.25ZM9.39941 22.2236L8.3125 25.5527L9.98047 26.0928L20.4668 29.4971L22.1279 30.0439L23.2148 26.7148L21.5469 26.168L11.0605 22.7637L9.39941 22.2236ZM23.29 33.6123L22.2646 35.0273L15.7773 43.9482L14.752 45.3633L17.582 47.4209L18.6143 46.0059L25.0947 37.085L26.1201 35.6631L23.29 33.6123ZM32.71 33.6123L29.8799 35.6631L30.9053 37.085L37.3857 46.0059L38.418 47.4209L41.248 45.3633L40.2227 43.9482L33.7354 35.0273L32.71 33.6123ZM46.6006 22.2236L44.9395 22.7637L34.4531 26.168L32.7852 26.7148L33.8721 30.0439L35.5332 29.4971L46.0195 26.0928L47.6875 25.5527L46.6006 22.2236Z" fill="white"/>
<path id="Vector_2" d="M28 21.0068C22.993 21.0068 18.8945 25.0985 18.8945 30.1055C18.8945 35.1125 22.993 39.2109 28 39.2109C33.007 39.2109 37.1055 35.1125 37.1055 30.1055C37.1055 25.0985 33.007 21.0068 28 21.0068ZM28 24.5068C31.1155 24.5068 33.6055 26.99 33.6055 30.1055C33.6055 33.2209 31.1155 35.7109 28 35.7109C24.8845 35.7109 22.3945 33.2209 22.3945 30.1055C22.3945 26.99 24.8845 24.5068 28 24.5068Z" fill="white"/>
<path id="Vector_3" d="M28.0023 2.625C25.0269 2.625 22.5745 5.07732 22.5745 8.05273C22.5745 11.0282 25.0269 13.4736 28.0023 13.4736C30.9777 13.4736 33.43 11.0282 33.43 8.05273C33.43 5.07732 30.9777 2.625 28.0023 2.625ZM28.0023 6.125C29.0862 6.125 29.93 6.96886 29.93 8.05273C29.93 9.13661 29.0862 9.97363 28.0023 9.97363C26.9184 9.97363 26.0745 9.13661 26.0745 8.05273C26.0745 6.96886 26.9184 6.125 28.0023 6.125ZM8.6976 18.1289C5.86999 17.2145 2.78709 18.7876 1.86849 21.6152C0.949289 24.4447 2.51803 27.5318 5.34799 28.4512C8.17919 29.3693 11.2714 27.7948 12.1908 24.9648C13.1094 22.1371 11.5337 19.0496 8.70443 18.1289H8.6976ZM7.61752 21.458H7.62434C8.65574 21.7925 9.19545 22.8573 8.86166 23.8848C8.52801 24.9118 7.46086 25.457 6.42806 25.1221C5.40102 24.7884 4.8638 23.7228 5.1976 22.6953C5.53124 21.6683 6.59002 21.1242 7.61752 21.458ZM14.1869 42.6016C12.8118 42.8202 11.5204 43.5588 10.6458 44.7617C8.89764 47.1681 9.44094 50.592 11.849 52.3428C14.2566 54.0882 17.6802 53.5464 19.43 51.1396C21.1754 48.7321 20.6336 45.3085 18.2269 43.5586C17.0227 42.683 15.5619 42.3829 14.1869 42.6016ZM16.1693 46.3887C17.0456 47.0258 17.2277 48.2066 16.5931 49.082C15.9549 49.9527 14.7798 50.1389 13.9066 49.5059C13.0372 48.8686 12.8457 47.6868 13.4759 46.8193C14.1137 45.9421 15.2947 45.7528 16.1693 46.3887ZM41.8177 42.6016C40.4427 42.383 38.9819 42.683 37.7777 43.5586C35.371 45.3085 34.8292 48.7321 36.5746 51.1396C38.3244 53.5464 41.748 54.0882 44.1556 52.3428C46.5636 50.592 47.1069 47.1681 45.3587 44.7617C44.4841 43.5588 43.1928 42.8202 41.8177 42.6016ZM39.8353 46.3887C40.7099 45.7528 41.8908 45.9421 42.5287 46.8193C43.1589 47.6868 42.9674 48.8686 42.098 49.5059C41.2247 50.1389 40.0497 49.9527 39.4115 49.082C38.7768 48.2066 38.959 47.0258 39.8353 46.3887ZM47.3001 18.1289C44.4709 19.0496 42.8952 22.1371 43.8138 24.9648C44.7332 27.7948 47.8254 29.3693 50.6566 28.4512C53.4865 27.5318 55.0553 24.4447 54.1361 21.6152C53.2175 18.7876 50.1346 17.2145 47.307 18.1289H47.3001ZM48.3802 21.458H48.3872C49.4147 21.1242 50.4735 21.6683 50.8071 22.6953C51.1409 23.7228 50.6037 24.7884 49.5767 25.1221C48.5439 25.457 47.4767 24.9118 47.1431 23.8848C46.8093 22.8573 47.3488 21.7925 48.3802 21.458Z" fill="white"/>
</g>
</svg>
