<svg width="20" height="22" viewBox="0 0 20 22" fill="none" xmlns="http://www.w3.org/2000/svg">
<g id="Frame">
<path id="Vector" d="M1.875 17.1875C6.32134 17.1835 10.7483 17.8312 15.0392 19.1134C15.645 19.2949 16.25 18.7999 16.25 18.1087V17.1875M3.125 4.125V4.8125C3.125 4.99484 3.05915 5.1697 2.94194 5.29864C2.82473 5.42757 2.66576 5.5 2.5 5.5H1.875M1.875 5.5V5.15625C1.875 4.587 2.295 4.125 2.8125 4.125H16.875M1.875 5.5V13.75M16.875 4.125V4.8125C16.875 5.192 17.155 5.5 17.5 5.5H18.125M16.875 4.125H17.1875C17.705 4.125 18.125 4.587 18.125 5.15625V14.0938C18.125 14.663 17.705 15.125 17.1875 15.125H16.875M1.875 13.75V14.0938C1.875 14.3673 1.97377 14.6296 2.14959 14.823C2.3254 15.0164 2.56386 15.125 2.8125 15.125H3.125M1.875 13.75H2.5C2.66576 13.75 2.82473 13.8224 2.94194 13.9514C3.05915 14.0803 3.125 14.2552 3.125 14.4375V15.125M16.875 15.125V14.4375C16.875 14.2552 16.9408 14.0803 17.0581 13.9514C17.1753 13.8224 17.3342 13.75 17.5 13.75H18.125M16.875 15.125H3.125M12.5 9.625C12.5 10.3543 12.2366 11.0538 11.7678 11.5695C11.2989 12.0853 10.663 12.375 10 12.375C9.33696 12.375 8.70107 12.0853 8.23223 11.5695C7.76339 11.0538 7.5 10.3543 7.5 9.625C7.5 8.89565 7.76339 8.19618 8.23223 7.68046C8.70107 7.16473 9.33696 6.875 10 6.875C10.663 6.875 11.2989 7.16473 11.7678 7.68046C12.2366 8.19618 12.5 8.89565 12.5 9.625ZM15 9.625H15.0067V9.63233H15V9.625ZM5 9.625H5.00667V9.63233H5V9.625Z" stroke="#887DF7" stroke-width="1.5" stroke-linecap="round" stroke-linejoin="round"/>
</g>
</svg>
