<?xml version="1.0" encoding="utf-8"?>
<!-- Generator: Adobe Illustrator 25.3.0, SVG Export Plug-In . SVG Version: 6.00 Build 0)  -->
<svg version="1.1" id="Layer_1" xmlns="http://www.w3.org/2000/svg" xmlns:xlink="http://www.w3.org/1999/xlink" x="0px" y="0px"
	 viewBox="0 0 32 32" style="enable-background:new 0 0 32 32;" xml:space="preserve">
<style type="text/css">
	.st0{fill:#FFFFFF;}
</style>
<g id="puzzle">
	<g id="Layer_2_1_">
		<path id="Vector" class="st0" d="M21.6,19.4c-0.7,0-1.4-0.3-2-0.7c-0.5-0.5-0.9-1.1-1-1.8h-6.1c-0.1,0-0.3,0-0.4-0.1
			c-0.1-0.1-0.2-0.1-0.3-0.2c-0.1-0.1-0.1-0.2-0.2-0.3c0-0.1,0-0.2,0-0.4c0-0.1,0-0.2,0-0.3c0-0.3-0.1-0.7-0.4-0.9s-0.6-0.4-0.9-0.4
			s-0.7,0.1-0.9,0.4c-0.2,0.2-0.4,0.6-0.4,0.9c0,0.1,0,0.2,0,0.3c0,0.1,0,0.3,0,0.4S9.1,16.5,9,16.5c-0.1,0.1-0.2,0.2-0.3,0.2
			c-0.1,0.1-0.2,0.1-0.4,0.1H4.9c-0.2,0-0.4-0.1-0.6-0.3C4.1,16.4,4,16.2,4,16s0.1-0.4,0.3-0.6c0.2-0.2,0.4-0.3,0.6-0.3h2.6
			c0.1-0.7,0.5-1.4,1-1.8c0.5-0.5,1.2-0.7,2-0.7c0.7,0,1.4,0.3,2,0.7c0.5,0.5,0.9,1.1,1,1.8h6.1c0.1,0,0.3,0,0.4,0.1
			c0.1,0.1,0.2,0.1,0.3,0.2c0.1,0.1,0.1,0.2,0.2,0.3c0,0.1,0,0.2,0,0.4c0,0.1,0,0.2,0,0.3c0,0.3,0.1,0.7,0.4,0.9s0.6,0.4,0.9,0.4
			c0.3,0,0.7-0.1,0.9-0.4c0.2-0.2,0.4-0.6,0.4-0.9c0-0.1,0-0.2,0-0.3c0-0.1,0-0.3,0-0.4c0-0.1,0.1-0.2,0.2-0.3
			c0.1-0.1,0.2-0.2,0.3-0.2c0.1-0.1,0.2-0.1,0.4-0.1h3.5c0.2,0,0.4,0.1,0.6,0.3c0.2,0.2,0.3,0.4,0.3,0.6s-0.1,0.4-0.3,0.6
			c-0.2,0.2-0.4,0.3-0.6,0.3h-2.6c-0.1,0.7-0.5,1.4-1,1.8C23,19.2,22.3,19.4,21.6,19.4z"/>
		<path id="Vector_2" class="st0" d="M25.4,4H6.6C5.9,4,5.2,4.3,4.8,4.8S4,5.9,4,6.6v18.9c0,0.7,0.3,1.3,0.8,1.8
			C5.2,27.7,5.9,28,6.6,28h18.9c0.7,0,1.3-0.3,1.8-0.8c0.5-0.5,0.8-1.1,0.8-1.8V6.6c0-0.7-0.3-1.3-0.8-1.8C26.8,4.3,26.1,4,25.4,4z
			 M5.7,25.4V6.6C5.7,6.3,5.8,6.1,6,6c0.2-0.2,0.4-0.3,0.6-0.3h8.6v2.6c0,0.1,0,0.3,0.1,0.4c0.1,0.1,0.1,0.2,0.2,0.3
			c0.1,0.1,0.2,0.1,0.3,0.2c0.1,0,0.2,0,0.4,0c0.1,0,0.2,0,0.3,0c0.3,0,0.7,0.1,0.9,0.4c0.2,0.2,0.4,0.6,0.4,0.9s-0.1,0.7-0.4,0.9
			s-0.6,0.4-0.9,0.4c-0.1,0-0.2,0-0.3,0c-0.1,0-0.3,0-0.4,0c-0.1,0-0.2,0.1-0.3,0.2c-0.1,0.1-0.2,0.2-0.2,0.3
			c-0.1,0.1-0.1,0.2-0.1,0.4v6.1c-0.7,0.1-1.4,0.5-1.8,1c-0.5,0.5-0.7,1.2-0.7,2s0.3,1.4,0.7,2c0.5,0.5,1.1,0.9,1.8,1v1.7H6.6
			c-0.2,0-0.4-0.1-0.6-0.3C5.8,25.9,5.7,25.7,5.7,25.4z M26.3,25.4c0,0.2-0.1,0.4-0.3,0.6c-0.2,0.2-0.4,0.3-0.6,0.3h-8.6v-2.6
			c0-0.1,0-0.3-0.1-0.4c-0.1-0.1-0.1-0.2-0.2-0.3c-0.1-0.1-0.2-0.1-0.3-0.2c-0.1,0-0.2,0-0.4,0c-0.1,0-0.2,0-0.3,0
			c-0.3,0-0.7-0.1-0.9-0.4c-0.2-0.2-0.4-0.6-0.4-0.9c0-0.3,0.1-0.7,0.4-0.9s0.6-0.4,0.9-0.4c0.1,0,0.2,0,0.3,0c0.1,0,0.3,0,0.4,0
			c0.1,0,0.2-0.1,0.3-0.2c0.1-0.1,0.2-0.2,0.2-0.3c0.1-0.1,0.1-0.2,0.1-0.4v-6.1c0.7-0.1,1.4-0.5,1.8-1c0.5-0.5,0.7-1.2,0.7-2
			c0-0.7-0.3-1.4-0.7-2c-0.5-0.5-1.1-0.9-1.8-1V5.7h8.6c0.2,0,0.4,0.1,0.6,0.3c0.2,0.2,0.3,0.4,0.3,0.6V25.4z"/>
	</g>
</g>
</svg>
