<svg width="1440" height="1186" viewBox="0 0 1440 1186" fill="none" xmlns="http://www.w3.org/2000/svg">
<path d="M0 105.579L54.488 86.0646M292 1L220.5 26.6076M220.5 26.6076L331 26.019M220.5 26.6076L54.488 86.0646M331 26.019L30 166.168M331 26.019H411M331 26.019L389 1M0 180.136L30 166.168M30 166.168H0H166M166 166.168L0 262.198L411 26.019M166 166.168H426.806M411 26.019L455 1M411 26.019H441M441 26.019L483.5 1L0 304.731L303 303.23M441 26.019H553.401M303 303.23L244 374.284M303 303.23H1440L956 1M303 303.23L374.414 224.17M244 374.284L181.392 447.339M244 374.284H0H1440H244ZM0 659L33.0193 620.471M33.0193 620.471H0H466M33.0193 620.471L112.78 527.4M33.0193 620.471H466M1440 620.471H466M112.78 527.4H0H1440H112.78ZM112.78 527.4L181.392 447.339M181.392 447.339H0H1440H181.392ZM576 1L553.401 26.019M553.401 26.019L1440 26.6076M553.401 26.019L426.806 166.168M1440 166.168H426.806M426.806 166.168L374.414 224.17M374.414 224.17H0H603M603 224.17H1440L1068 1M603 224.17L466 620.471M603 224.17L644.152 86.0646M466 620.471L404.981 807M669.5 1L644.152 86.0646M644.152 86.0646H54.488M644.152 86.0646H786.916M763 1L786.916 86.0646M1071.5 1186L786.916 86.0646M786.916 86.0646H933.24M882 1L933.24 86.0646M1440 926L933.24 86.0646M933.24 86.0646H1321.97M1149 1L1321.97 86.0646M1440 144.109L1321.97 86.0646M1321.97 86.0646H1440M281 1186L342.991 996.5M1440 807H404.981M0 807H404.981M404.981 807L342.991 996.5M342.991 996.5H0H1440" stroke="url(#paint0_linear_2891_62108)" stroke-opacity="0.6"/>
<defs>
<linearGradient id="paint0_linear_2891_62108" x1="720" y1="0.999999" x2="732.5" y2="1186" gradientUnits="userSpaceOnUse">
<stop stop-color="#96E9FF" stop-opacity="0"/>
<stop offset="0.193004" stop-color="#96E9FF"/>
<stop offset="0.785291" stop-color="#96E9FF"/>
<stop offset="1" stop-color="#96E9FF" stop-opacity="0"/>
</linearGradient>
</defs>
</svg>
